<mxfile host="app.diagrams.net" modified="2021-12-15T21:54:51.356Z" agent="5.0 (Windows NT 10.0; Win64; x64) AppleWebKit/537.36 (KHTML, like Gecko) Chrome/96.0.4664.93 Safari/537.36" etag="90_OtPmavDkFm7FXhDAB" version="15.9.6" type="github">
  <diagram id="D5aoct5zmNrkOMajG7Hi" name="Page-1">
    <mxGraphModel dx="1422" dy="793" grid="1" gridSize="10" guides="1" tooltips="1" connect="1" arrows="1" fold="1" page="1" pageScale="1" pageWidth="850" pageHeight="1100" math="0" shadow="0">
      <root>
        <mxCell id="0" />
        <mxCell id="1" parent="0" />
        <mxCell id="NRywAnxNrWq0IJAM4zf4-23" value="SUT" style="rounded=0;whiteSpace=wrap;html=1;labelPosition=left;verticalLabelPosition=top;align=right;verticalAlign=bottom;" parent="1" vertex="1">
          <mxGeometry x="200" y="200" width="300" height="300" as="geometry" />
        </mxCell>
        <mxCell id="NRywAnxNrWq0IJAM4zf4-24" value="IUT 1" style="rounded=0;whiteSpace=wrap;html=1;labelPosition=center;verticalLabelPosition=middle;align=center;verticalAlign=middle;" parent="1" vertex="1">
          <mxGeometry x="200" y="400" width="60" height="60" as="geometry" />
        </mxCell>
        <mxCell id="NRywAnxNrWq0IJAM4zf4-25" value="IUT 2" style="rounded=0;whiteSpace=wrap;html=1;labelPosition=center;verticalLabelPosition=middle;align=center;verticalAlign=middle;" parent="1" vertex="1">
          <mxGeometry x="320" y="200" width="60" height="60" as="geometry" />
        </mxCell>
        <mxCell id="NRywAnxNrWq0IJAM4zf4-26" value="IUT 3" style="rounded=0;whiteSpace=wrap;html=1;labelPosition=center;verticalLabelPosition=middle;align=center;verticalAlign=middle;" parent="1" vertex="1">
          <mxGeometry x="440" y="400" width="60" height="60" as="geometry" />
        </mxCell>
        <mxCell id="NRywAnxNrWq0IJAM4zf4-27" value="CC" style="rounded=0;whiteSpace=wrap;html=1;labelPosition=center;verticalLabelPosition=middle;align=center;verticalAlign=middle;" parent="1" vertex="1">
          <mxGeometry x="440" y="540" width="60" height="60" as="geometry" />
        </mxCell>
        <mxCell id="NRywAnxNrWq0IJAM4zf4-28" value="" style="endArrow=none;html=1;rounded=0;exitX=0.5;exitY=0;exitDx=0;exitDy=0;entryX=0;entryY=0.5;entryDx=0;entryDy=0;strokeWidth=3;" parent="1" source="NRywAnxNrWq0IJAM4zf4-24" target="NRywAnxNrWq0IJAM4zf4-25" edge="1">
          <mxGeometry width="50" height="50" relative="1" as="geometry">
            <mxPoint x="280" y="590" as="sourcePoint" />
            <mxPoint x="330" y="540" as="targetPoint" />
          </mxGeometry>
        </mxCell>
        <mxCell id="NRywAnxNrWq0IJAM4zf4-29" value="" style="endArrow=none;html=1;rounded=0;entryX=1;entryY=0.5;entryDx=0;entryDy=0;exitDx=0;exitDy=0;strokeWidth=3;startArrow=none;" parent="1" source="NRywAnxNrWq0IJAM4zf4-38" target="NRywAnxNrWq0IJAM4zf4-25" edge="1">
          <mxGeometry width="50" height="50" relative="1" as="geometry">
            <mxPoint x="280" y="590" as="sourcePoint" />
            <mxPoint x="330" y="540" as="targetPoint" />
          </mxGeometry>
        </mxCell>
        <mxCell id="NRywAnxNrWq0IJAM4zf4-30" value="" style="endArrow=none;html=1;rounded=0;exitX=0.5;exitY=1;exitDx=0;exitDy=0;entryX=0;entryY=0.5;entryDx=0;entryDy=0;strokeWidth=3;" parent="1" source="NRywAnxNrWq0IJAM4zf4-24" target="NRywAnxNrWq0IJAM4zf4-27" edge="1">
          <mxGeometry width="50" height="50" relative="1" as="geometry">
            <mxPoint x="280" y="590" as="sourcePoint" />
            <mxPoint x="330" y="540" as="targetPoint" />
          </mxGeometry>
        </mxCell>
        <mxCell id="NRywAnxNrWq0IJAM4zf4-31" value="" style="endArrow=none;html=1;rounded=0;entryX=0.5;entryY=1;entryDx=0;entryDy=0;exitX=0.5;exitY=0;exitDx=0;exitDy=0;strokeWidth=3;" parent="1" source="NRywAnxNrWq0IJAM4zf4-27" target="NRywAnxNrWq0IJAM4zf4-26" edge="1">
          <mxGeometry width="50" height="50" relative="1" as="geometry">
            <mxPoint x="280" y="590" as="sourcePoint" />
            <mxPoint x="330" y="540" as="targetPoint" />
          </mxGeometry>
        </mxCell>
        <mxCell id="NRywAnxNrWq0IJAM4zf4-32" value="IC 1" style="rounded=0;whiteSpace=wrap;html=1;labelPosition=center;verticalLabelPosition=middle;align=center;verticalAlign=middle;" parent="1" vertex="1">
          <mxGeometry x="140" y="400" width="60" height="60" as="geometry" />
        </mxCell>
        <mxCell id="NRywAnxNrWq0IJAM4zf4-33" value="TC 1" style="rounded=0;whiteSpace=wrap;html=1;labelPosition=center;verticalLabelPosition=middle;align=center;verticalAlign=middle;" parent="1" vertex="1">
          <mxGeometry x="80" y="400" width="60" height="60" as="geometry" />
        </mxCell>
        <mxCell id="NRywAnxNrWq0IJAM4zf4-34" value="MAIN TC" style="rounded=0;whiteSpace=wrap;html=1;labelPosition=center;verticalLabelPosition=middle;align=center;verticalAlign=middle;" parent="1" vertex="1">
          <mxGeometry x="310" y="70" width="80" height="60" as="geometry" />
        </mxCell>
        <mxCell id="NRywAnxNrWq0IJAM4zf4-36" value="" style="curved=1;endArrow=none;html=1;rounded=0;strokeWidth=3;exitX=0;exitY=0.5;exitDx=0;exitDy=0;entryX=0;entryY=0.5;entryDx=0;entryDy=0;endFill=0;" parent="1" source="NRywAnxNrWq0IJAM4zf4-33" target="NRywAnxNrWq0IJAM4zf4-34" edge="1">
          <mxGeometry width="50" height="50" relative="1" as="geometry">
            <mxPoint x="280" y="590" as="sourcePoint" />
            <mxPoint x="330" y="540" as="targetPoint" />
            <Array as="points">
              <mxPoint x="20" y="280" />
              <mxPoint x="60" y="110" />
              <mxPoint x="180" y="80" />
            </Array>
          </mxGeometry>
        </mxCell>
        <mxCell id="NRywAnxNrWq0IJAM4zf4-37" value="TC 2" style="rounded=0;whiteSpace=wrap;html=1;labelPosition=center;verticalLabelPosition=middle;align=center;verticalAlign=middle;" parent="1" vertex="1">
          <mxGeometry x="580" y="240" width="60" height="60" as="geometry" />
        </mxCell>
        <mxCell id="NRywAnxNrWq0IJAM4zf4-38" value="" style="shape=waypoint;sketch=0;fillStyle=solid;size=6;pointerEvents=1;points=[];fillColor=none;resizable=0;rotatable=0;perimeter=centerPerimeter;snapToPoint=1;" parent="1" vertex="1">
          <mxGeometry x="425" y="330" width="40" height="40" as="geometry" />
        </mxCell>
        <mxCell id="NRywAnxNrWq0IJAM4zf4-40" value="" style="endArrow=none;html=1;rounded=0;entryDx=0;entryDy=0;exitX=0.5;exitY=0;exitDx=0;exitDy=0;strokeWidth=3;" parent="1" source="NRywAnxNrWq0IJAM4zf4-26" target="NRywAnxNrWq0IJAM4zf4-38" edge="1">
          <mxGeometry width="50" height="50" relative="1" as="geometry">
            <mxPoint x="470" y="400" as="sourcePoint" />
            <mxPoint x="380" y="230" as="targetPoint" />
          </mxGeometry>
        </mxCell>
        <mxCell id="NRywAnxNrWq0IJAM4zf4-42" value="" style="endArrow=none;html=1;rounded=0;strokeWidth=3;entryX=0;entryY=0.5;entryDx=0;entryDy=0;" parent="1" source="NRywAnxNrWq0IJAM4zf4-38" target="NRywAnxNrWq0IJAM4zf4-37" edge="1">
          <mxGeometry width="50" height="50" relative="1" as="geometry">
            <mxPoint x="380" y="590" as="sourcePoint" />
            <mxPoint x="430" y="540" as="targetPoint" />
          </mxGeometry>
        </mxCell>
        <mxCell id="NRywAnxNrWq0IJAM4zf4-43" value="" style="curved=1;endArrow=none;html=1;rounded=0;strokeWidth=3;exitX=1;exitY=0.5;exitDx=0;exitDy=0;entryX=0.5;entryY=0;entryDx=0;entryDy=0;endFill=0;" parent="1" source="NRywAnxNrWq0IJAM4zf4-34" target="NRywAnxNrWq0IJAM4zf4-37" edge="1">
          <mxGeometry width="50" height="50" relative="1" as="geometry">
            <mxPoint x="380" y="590" as="sourcePoint" />
            <mxPoint x="430" y="540" as="targetPoint" />
            <Array as="points">
              <mxPoint x="510" y="80" />
              <mxPoint x="620" y="100" />
              <mxPoint x="650" y="160" />
            </Array>
          </mxGeometry>
        </mxCell>
        <mxCell id="NRywAnxNrWq0IJAM4zf4-44" value="CP&amp;nbsp; 1" style="text;html=1;strokeColor=none;fillColor=none;align=center;verticalAlign=middle;whiteSpace=wrap;rounded=0;" parent="1" vertex="1">
          <mxGeometry x="430" y="310" width="50" height="30" as="geometry" />
        </mxCell>
        <mxCell id="NRywAnxNrWq0IJAM4zf4-45" value="CL&amp;nbsp; 1" style="text;html=1;strokeColor=none;fillColor=none;align=center;verticalAlign=middle;whiteSpace=wrap;rounded=0;" parent="1" vertex="1">
          <mxGeometry x="40" y="80" width="50" height="30" as="geometry" />
        </mxCell>
        <mxCell id="NRywAnxNrWq0IJAM4zf4-47" value="CL&amp;nbsp; 2" style="text;html=1;strokeColor=none;fillColor=none;align=center;verticalAlign=middle;whiteSpace=wrap;rounded=0;" parent="1" vertex="1">
          <mxGeometry x="220" y="300" width="50" height="30" as="geometry" />
        </mxCell>
        <mxCell id="NRywAnxNrWq0IJAM4zf4-48" value="CL&amp;nbsp; 3" style="text;html=1;strokeColor=none;fillColor=none;align=center;verticalAlign=middle;whiteSpace=wrap;rounded=0;" parent="1" vertex="1">
          <mxGeometry x="415" y="270" width="50" height="30" as="geometry" />
        </mxCell>
        <mxCell id="NRywAnxNrWq0IJAM4zf4-49" value="CL&amp;nbsp; 4" style="text;html=1;strokeColor=none;fillColor=none;align=center;verticalAlign=middle;whiteSpace=wrap;rounded=0;" parent="1" vertex="1">
          <mxGeometry x="465" y="510" width="50" height="30" as="geometry" />
        </mxCell>
        <mxCell id="NRywAnxNrWq0IJAM4zf4-50" value="CL&amp;nbsp; 5" style="text;html=1;strokeColor=none;fillColor=none;align=center;verticalAlign=middle;whiteSpace=wrap;rounded=0;" parent="1" vertex="1">
          <mxGeometry x="300" y="535" width="50" height="30" as="geometry" />
        </mxCell>
        <mxCell id="NRywAnxNrWq0IJAM4zf4-51" value="CL&amp;nbsp; 6" style="text;html=1;strokeColor=none;fillColor=none;align=center;verticalAlign=middle;whiteSpace=wrap;rounded=0;" parent="1" vertex="1">
          <mxGeometry x="570" y="60" width="50" height="30" as="geometry" />
        </mxCell>
        <mxCell id="NRywAnxNrWq0IJAM4zf4-52" value="CL&amp;nbsp; 7" style="text;html=1;strokeColor=none;fillColor=none;align=center;verticalAlign=middle;whiteSpace=wrap;rounded=0;" parent="1" vertex="1">
          <mxGeometry x="520" y="310" width="50" height="30" as="geometry" />
        </mxCell>
        <mxCell id="nfmp-FNF5bChc9_qAKg1-1" value="&lt;div&gt;&lt;span&gt;CC&amp;nbsp;&lt;/span&gt;&lt;span&gt;&amp;nbsp;&lt;span style=&quot;white-space: pre&quot;&gt;	&lt;span style=&quot;white-space: pre&quot;&gt;	&lt;/span&gt;&lt;/span&gt;&lt;/span&gt;&lt;span&gt;Controlled component&lt;/span&gt;&lt;br&gt;&lt;/div&gt;&lt;div&gt;CL&amp;nbsp;&lt;span&gt;	&lt;span style=&quot;white-space: pre&quot;&gt;	&lt;span style=&quot;white-space: pre&quot;&gt;	&lt;/span&gt;&lt;/span&gt;&lt;/span&gt;Communication link&lt;/div&gt;&lt;div&gt;CP&amp;nbsp;&lt;span&gt;	&lt;span style=&quot;white-space: pre&quot;&gt;	&lt;span style=&quot;white-space: pre&quot;&gt;	&lt;/span&gt;&lt;/span&gt;&lt;/span&gt;Communication point&lt;/div&gt;&lt;div&gt;IC&amp;nbsp;&lt;span style=&quot;white-space: pre&quot;&gt;	&lt;span style=&quot;white-space: pre&quot;&gt;	&lt;/span&gt;&lt;/span&gt;Interface component&lt;/div&gt;&lt;div&gt;IUT&amp;nbsp;&lt;span style=&quot;white-space: pre&quot;&gt;	&lt;span style=&quot;white-space: pre&quot;&gt;	&lt;/span&gt;&lt;/span&gt;Implementation under test&lt;/div&gt;&lt;div&gt;SUT &lt;span style=&quot;white-space: pre&quot;&gt;	&lt;/span&gt;System under test&lt;/div&gt;TC&lt;span&gt;	&lt;span style=&quot;white-space: pre&quot;&gt;	&lt;/span&gt;&lt;span style=&quot;white-space: pre&quot;&gt;	&lt;/span&gt;&lt;/span&gt;Test component&lt;br&gt;&lt;div&gt;&lt;br&gt;&lt;/div&gt;" style="text;html=1;strokeColor=none;fillColor=none;align=left;verticalAlign=middle;whiteSpace=wrap;rounded=0;" vertex="1" parent="1">
          <mxGeometry x="560" y="430" width="200" height="120" as="geometry" />
        </mxCell>
      </root>
    </mxGraphModel>
  </diagram>
</mxfile>
